<svg width="101" height="98" viewBox="0 0 101 98" fill="none" xmlns="http://www.w3.org/2000/svg">
<path d="M26.1187 13.2762L26.7581 13.0022C27.087 12.9474 27.3062 13.0205 27.3975 13.2762L27.4889 13.4772C27.7811 14.1896 27.9273 22.4468 27.9273 38.2306L27.8359 51.1279C34.1567 44.2225 40.3679 36.0201 46.4512 26.5207C49.3376 21.6248 52.1874 16.0713 55.0007 9.86007L56.3526 9.31203C56.6814 9.22069 56.8823 9.29376 56.992 9.54952L57.0833 9.76873C53.795 17.4962 49.9587 24.639 45.6109 31.2156C41.1534 37.7556 35.2528 45.2455 27.8725 53.7037L28.2561 54.6171C34.2481 56.3526 42.8159 59.0745 53.9777 62.7647C58.015 63.8243 72.1545 67.1856 96.3964 72.8122L96.4695 72.9949L96.8531 72.6113C97.9857 72.1363 99.3559 72.7757 100.945 74.4929C101.073 74.7852 101 74.9679 100.726 75.0775L100.032 75.3698C99.3559 75.6438 96.8166 75.0775 92.4139 73.616C69.7249 68.4461 55.4757 65.0665 49.6664 63.4772C41.8111 60.8283 34.5769 58.49 27.9456 56.4622L27.7629 56.5353C27.909 59.4034 27.9456 69.6884 27.8177 87.3719C27.7994 93.7475 27.5254 97.0358 27.0322 97.2368L26.3928 97.4925L25.2053 97.73L24.1092 95.0811C24.0179 94.8619 24.4746 94.3139 25.4794 93.4735C25.6438 83.0607 25.662 70.62 25.5342 56.1699L25.2967 56.2612C23.6525 57.9967 22.1545 59.1293 20.8027 59.6774C20.0537 59.988 19.3961 59.8966 18.8845 59.4399L18.7019 58.9832C18.0442 56.6814 18.6288 55.1469 20.4556 54.3979L21.095 54.1421C22.9218 53.722 24.2919 53.6854 25.1871 54.0325C25.6438 53.8498 25.7168 52.6259 25.4246 50.3241C25.6986 48.479 25.7168 36.8239 25.4428 15.3588L24.913 15.2857C24.84 14.2992 25.2419 13.6233 26.1187 13.2762ZM20.9123 55.5122C20.6931 56.7179 20.6931 57.5766 20.894 58.0881L21.1315 57.9785L23.7256 55.6219L23.6343 55.4209C22.1363 55.3478 21.2229 55.3844 20.9123 55.5122Z" fill="#142535"/>
<path fill-rule="evenodd" clip-rule="evenodd" d="M46 2C21.6995 2 2 21.6995 2 46C2 61.6246 10.1433 75.3479 22.422 83.1562C22.888 83.4525 23.0256 84.0706 22.7292 84.5366C22.4329 85.0026 21.8148 85.1402 21.3488 84.8438C8.51725 76.684 0 62.337 0 46C0 20.5949 20.5949 0 46 0C71.4051 0 92 20.5949 92 46C92 53.5459 90.1823 60.6703 86.9599 66.9562C86.708 67.4477 86.1053 67.6418 85.6138 67.3899C85.1224 67.1379 84.9282 66.5353 85.1801 66.0438C88.2611 60.0337 90 53.2214 90 46C90 21.6995 70.3005 2 46 2ZM81.629 73.5093C82.0584 73.8567 82.1248 74.4864 81.7774 74.9157C73.3459 85.3353 60.4509 92 46 92C40.6254 92 35.464 91.0778 30.6668 89.3823C30.146 89.1982 29.8731 88.6269 30.0572 88.1062C30.2412 87.5854 30.8125 87.3125 31.3332 87.4966C35.9194 89.1175 40.8556 90 46 90C59.8218 90 72.1546 83.6281 80.2226 73.6576C80.57 73.2283 81.1997 73.1619 81.629 73.5093Z" fill="#142535"/>
</svg>
