<svg width="57" height="24" viewBox="0 0 57 24" fill="none" xmlns="http://www.w3.org/2000/svg">
<g clip-path="url(#clip0_1758_2556)">
<path d="M24 23C24.5523 23 25 22.5523 25 22C25 21.4477 24.5523 21 24 21C23.4477 21 23 21.4477 23 22C23 22.5523 23.4477 23 24 23Z" stroke="white" stroke-width="1.5" stroke-linecap="round" stroke-linejoin="round"/>
<path d="M35 23C35.5523 23 36 22.5523 36 22C36 21.4477 35.5523 21 35 21C34.4477 21 34 21.4477 34 22C34 22.5523 34.4477 23 35 23Z" stroke="white" stroke-width="1.5" stroke-linecap="round" stroke-linejoin="round"/>
<path d="M16 2H20L22.68 15.39C22.7714 15.8504 23.0219 16.264 23.3875 16.5583C23.7532 16.8526 24.2107 17.009 24.68 17H34.4C34.8693 17.009 35.3268 16.8526 35.6925 16.5583C36.0581 16.264 36.3086 15.8504 36.4 15.39L38 7H21" stroke="white" stroke-width="1.5" stroke-linecap="round" stroke-linejoin="round"/>
</g>
<defs>
<clipPath id="clip0_1758_2556">
<rect width="24" height="23" fill="white" transform="translate(15 1)"/>
</clipPath>
</defs>
</svg>
