<svg width="18" height="18" viewBox="0 0 18 18" fill="none" xmlns="http://www.w3.org/2000/svg">
<path d="M3.75 15.75V6.75M14.25 2.25V5.25V2.25ZM14.25 15.75V8.25V15.75ZM9 2.25V11.25V2.25ZM9 15.75V14.25V15.75ZM3.75 2.25V3.75V2.25Z" stroke="#4A5F73" stroke-width="1.2" stroke-linecap="round"/>
<path d="M12.75 6.75C12.75 7.57843 13.4216 8.25 14.25 8.25C15.0784 8.25 15.75 7.57843 15.75 6.75C15.75 5.92157 15.0784 5.25 14.25 5.25C13.4216 5.25 12.75 5.92157 12.75 6.75Z" stroke="#4A5F73" stroke-width="1.2" stroke-linecap="round"/>
<path d="M7.5 12.75C7.5 13.5784 8.17157 14.25 9 14.25C9.82843 14.25 10.5 13.5784 10.5 12.75C10.5 11.9216 9.82843 11.25 9 11.25C8.17157 11.25 7.5 11.9216 7.5 12.75Z" stroke="#4A5F73" stroke-width="1.2" stroke-linecap="round"/>
<path d="M2.25 5.25C2.25 6.07843 2.92157 6.75 3.75 6.75C4.57843 6.75 5.25 6.07843 5.25 5.25C5.25 4.42157 4.57843 3.75 3.75 3.75C2.92157 3.75 2.25 4.42157 2.25 5.25Z" stroke="#4A5F73" stroke-width="1.2" stroke-linecap="round"/>
</svg>
