<svg width="16" height="16" viewBox="0 0 16 16" fill="none" xmlns="http://www.w3.org/2000/svg">
<path d="M13.3334 8V14.6667H2.66675V8" stroke="white" stroke-width="1.2" stroke-linecap="round" stroke-linejoin="round"/>
<path d="M14.6666 4.6665H1.33325V7.99984H14.6666V4.6665Z" stroke="white" stroke-width="1.2" stroke-linecap="round" stroke-linejoin="round"/>
<path d="M8 14.6665V4.6665" stroke="white" stroke-width="1.2" stroke-linecap="round" stroke-linejoin="round"/>
<path d="M7.99992 4.66683H4.99992C4.55789 4.66683 4.13397 4.49123 3.82141 4.17867C3.50885 3.86611 3.33325 3.44219 3.33325 3.00016C3.33325 2.55814 3.50885 2.13421 3.82141 1.82165C4.13397 1.50909 4.55789 1.3335 4.99992 1.3335C7.33325 1.3335 7.99992 4.66683 7.99992 4.66683Z" stroke="white" stroke-width="1.2" stroke-linecap="round" stroke-linejoin="round"/>
<path d="M8 4.66683H11C11.442 4.66683 11.866 4.49123 12.1785 4.17867C12.4911 3.86611 12.6667 3.44219 12.6667 3.00016C12.6667 2.55814 12.4911 2.13421 12.1785 1.82165C11.866 1.50909 11.442 1.3335 11 1.3335C8.66667 1.3335 8 4.66683 8 4.66683Z" stroke="white" stroke-width="1.2" stroke-linecap="round" stroke-linejoin="round"/>
</svg>
