<svg width="16" height="16" viewBox="0 0 16 16" fill="none" xmlns="http://www.w3.org/2000/svg">
<path d="M13.3334 8V14.6667H2.66669V8" fill="#DBE9F5"/>
<path d="M13.3334 8V14.6667H2.66669V8" stroke="#4A5F73" stroke-width="1.2" stroke-linecap="round" stroke-linejoin="round"/>
<path d="M14.6666 4.6665H1.33331V7.99984H14.6666V4.6665Z" fill="#DBE9F5" stroke="#4A5F73" stroke-width="1.2" stroke-linecap="round" stroke-linejoin="round"/>
<path d="M8 14.6665V4.6665" stroke="#4A5F73" stroke-width="1.2" stroke-linecap="round" stroke-linejoin="round"/>
<path d="M7.99998 4.66683H4.99998C4.55795 4.66683 4.13403 4.49123 3.82147 4.17867C3.50891 3.86611 3.33331 3.44219 3.33331 3.00016C3.33331 2.55814 3.50891 2.13421 3.82147 1.82165C4.13403 1.50909 4.55795 1.3335 4.99998 1.3335C7.33331 1.3335 7.99998 4.66683 7.99998 4.66683Z" fill="#DBE9F5" stroke="#4A5F73" stroke-width="1.2" stroke-linecap="round" stroke-linejoin="round"/>
<path d="M8 4.66683H11C11.442 4.66683 11.866 4.49123 12.1785 4.17867C12.4911 3.86611 12.6667 3.44219 12.6667 3.00016C12.6667 2.55814 12.4911 2.13421 12.1785 1.82165C11.866 1.50909 11.442 1.3335 11 1.3335C8.66667 1.3335 8 4.66683 8 4.66683Z" fill="#DBE9F5" stroke="#4A5F73" stroke-width="1.2" stroke-linecap="round" stroke-linejoin="round"/>
</svg>
