<svg width="57" height="24" viewBox="0 0 57 24" fill="none" xmlns="http://www.w3.org/2000/svg">
<path d="M36.84 4.61012C36.3292 4.09912 35.7228 3.69376 35.0554 3.4172C34.3879 3.14064 33.6725 2.99829 32.95 2.99829C32.2275 2.99829 31.5121 3.14064 30.8446 3.4172C30.1772 3.69376 29.5708 4.09912 29.06 4.61012L28 5.67012L26.94 4.61012C25.9083 3.57842 24.509 2.99883 23.05 2.99883C21.591 2.99883 20.1917 3.57842 19.16 4.61012C18.1283 5.64181 17.5487 7.04108 17.5487 8.50012C17.5487 9.95915 18.1283 11.3584 19.16 12.3901L20.22 13.4501L28 21.2301L35.78 13.4501L36.84 12.3901C37.351 11.8794 37.7563 11.2729 38.0329 10.6055C38.3095 9.93801 38.4518 9.2226 38.4518 8.50012C38.4518 7.77763 38.3095 7.06222 38.0329 6.39476C37.7563 5.7273 37.351 5.12087 36.84 4.61012V4.61012Z" stroke="white" stroke-width="1.5" stroke-linecap="round" stroke-linejoin="round"/>
</svg>
