<svg width="57" height="24" viewBox="0 0 57 24" fill="none" xmlns="http://www.w3.org/2000/svg">
<g clip-path="url(#clip0_1758_2543)">
<path d="M39.3999 10.392C39.3992 10.3914 39.3987 10.3907 39.3981 10.3902L29.608 0.600404C29.1907 0.182923 28.6359 -0.046875 28.0457 -0.046875C27.4556 -0.046875 26.9008 0.182923 26.4833 0.600404L16.6983 10.3852C16.695 10.3885 16.6915 10.392 16.6884 10.3953C15.8315 11.2572 15.8329 12.6555 16.6926 13.5152C17.0854 13.9082 17.6039 14.1356 18.1586 14.1596C18.1813 14.1618 18.204 14.1629 18.2269 14.1629H18.6169V21.3674C18.6169 22.7932 19.777 23.9532 21.2029 23.9532H25.0331C25.4215 23.9532 25.7362 23.6382 25.7362 23.25V17.6016C25.7362 16.951 26.2656 16.4218 26.9161 16.4218H29.1753C29.8259 16.4218 30.3551 16.951 30.3551 17.6016V23.25C30.3551 23.6382 30.6698 23.9532 31.0582 23.9532H34.8884C36.3144 23.9532 37.4744 22.7932 37.4744 21.3674V14.1629H37.8362C38.4262 14.1629 38.981 13.9331 39.3987 13.5154C40.2593 12.6544 40.2596 11.2535 39.3999 10.392ZM38.4042 12.5211C38.2524 12.6729 38.0506 12.7566 37.8362 12.7566H36.7713C36.3829 12.7566 36.0681 13.0714 36.0681 13.4597V21.3674C36.0681 22.0177 35.539 22.5469 34.8884 22.5469H31.7613V17.6016C31.7613 16.1758 30.6013 15.0156 29.1753 15.0156H26.9161C25.4901 15.0156 24.33 16.1758 24.33 17.6016V22.5469H21.2029C20.5525 22.5469 20.0231 22.0177 20.0231 21.3674V13.4597C20.0231 13.0714 19.7084 12.7566 19.32 12.7566H18.2734C18.2624 12.7559 18.2516 12.7553 18.2404 12.7552C18.0309 12.7515 17.8345 12.6684 17.6872 12.521C17.3741 12.2078 17.3741 11.6983 17.6872 11.385C17.6874 11.385 17.6874 11.3848 17.6876 11.3846L17.6882 11.3841L27.4779 1.59467C27.6295 1.44287 27.8311 1.35938 28.0457 1.35938C28.2601 1.35938 28.4617 1.44287 28.6135 1.59467L38.4011 11.382C38.4026 11.3835 38.4042 11.385 38.4057 11.3864C38.7171 11.7001 38.7166 12.2086 38.4042 12.5211Z" fill="white"/>
</g>
<defs>
<clipPath id="clip0_1758_2543">
<rect width="24" height="24" fill="white" transform="translate(16)"/>
</clipPath>
</defs>
</svg>
