<svg width="16" height="16" viewBox="0 0 16 16" fill="none" xmlns="http://www.w3.org/2000/svg">
<path d="M13.3333 9.3335H2.66665C1.93027 9.3335 1.33331 9.93045 1.33331 10.6668V13.3335C1.33331 14.0699 1.93027 14.6668 2.66665 14.6668H13.3333C14.0697 14.6668 14.6666 14.0699 14.6666 13.3335V10.6668C14.6666 9.93045 14.0697 9.3335 13.3333 9.3335Z" fill="#DBE9F5" stroke="#4A5F73" stroke-width="1.2" stroke-linecap="round" stroke-linejoin="round"/>
<path d="M4.80001 12.5832C4.80001 12.7002 4.7726 12.8124 4.71779 12.9197C4.66297 13.0245 4.58188 13.1123 4.47453 13.183C4.36946 13.2537 4.2427 13.2939 4.09423 13.3037V13.5999H3.90922V13.3037C3.70137 13.2842 3.53235 13.2135 3.40215 13.0916C3.27196 12.9672 3.20572 12.81 3.20344 12.6198H3.53577C3.54491 12.7222 3.58031 12.8112 3.64198 12.8868C3.70594 12.9623 3.79502 13.0099 3.90922 13.0294V12.1151C3.75619 12.0737 3.63285 12.031 3.5392 11.9871C3.44555 11.9432 3.36561 11.875 3.29937 11.7823C3.23313 11.6897 3.20001 11.5653 3.20001 11.4093C3.20001 11.2118 3.26397 11.0484 3.39188 10.9192C3.52207 10.79 3.69452 10.7181 3.90922 10.7034V10.3999H4.09423V10.7034C4.28838 10.7205 4.44484 10.7876 4.56361 10.9046C4.68238 11.0192 4.7509 11.1691 4.76918 11.3544H4.43684C4.42542 11.2691 4.39002 11.1923 4.33063 11.124C4.27125 11.0533 4.19245 11.007 4.09423 10.985V11.8774C4.24498 11.9188 4.36718 11.9615 4.46083 12.0054C4.55676 12.0468 4.6367 12.1139 4.70065 12.2065C4.76689 12.2992 4.80001 12.4247 4.80001 12.5832ZM3.51864 11.391C3.51864 11.5105 3.55176 11.6019 3.618 11.6653C3.68424 11.7287 3.78131 11.7811 3.90922 11.8225V10.9777C3.79045 10.9899 3.69566 11.0314 3.62485 11.1021C3.55405 11.1703 3.51864 11.2666 3.51864 11.391ZM4.09423 13.033C4.21757 13.0184 4.3135 12.9709 4.38203 12.8904C4.45283 12.81 4.48823 12.7137 4.48823 12.6015C4.48823 12.482 4.45397 12.3906 4.38545 12.3272C4.31693 12.2614 4.21986 12.209 4.09423 12.17V13.033Z" fill="#4A5F73"/>
<path d="M13.3333 1.3335H2.66665C1.93027 1.3335 1.33331 1.93045 1.33331 2.66683V5.3335C1.33331 6.06988 1.93027 6.66683 2.66665 6.66683H13.3333C14.0697 6.66683 14.6666 6.06988 14.6666 5.3335V2.66683C14.6666 1.93045 14.0697 1.3335 13.3333 1.3335Z" fill="#DBE9F5" stroke="#4A5F73" stroke-width="1.2" stroke-linecap="round" stroke-linejoin="round"/>
<path d="M4.80001 4.58322C4.80001 4.70025 4.7726 4.8124 4.71779 4.91967C4.66297 5.02451 4.58188 5.11228 4.47453 5.18299C4.36946 5.25369 4.2427 5.29392 4.09423 5.30367V5.5999H3.90922V5.30367C3.70137 5.28417 3.53235 5.21346 3.40215 5.09156C3.27196 4.96722 3.20572 4.80996 3.20344 4.61979H3.53577C3.54491 4.72219 3.58031 4.81118 3.64198 4.88676C3.70594 4.96234 3.79502 5.00988 3.90922 5.02939V4.1151C3.75619 4.07365 3.63285 4.03099 3.5392 3.9871C3.44555 3.94322 3.36561 3.87495 3.29937 3.7823C3.23313 3.68965 3.20001 3.56531 3.20001 3.40927C3.20001 3.21179 3.26397 3.04844 3.39188 2.91922C3.52207 2.79 3.69452 2.71807 3.90922 2.70345V2.3999H4.09423V2.70345C4.28838 2.72051 4.44484 2.78756 4.56361 2.90459C4.68238 3.01918 4.7509 3.16912 4.76918 3.35442H4.43684C4.42542 3.26908 4.39002 3.19228 4.33063 3.12402C4.27125 3.05331 4.19245 3.00699 4.09423 2.98505V3.87739C4.24498 3.91884 4.36718 3.9615 4.46083 4.00539C4.55676 4.04684 4.6367 4.11388 4.70065 4.20653C4.76689 4.29918 4.80001 4.42474 4.80001 4.58322ZM3.51864 3.39099C3.51864 3.51045 3.55176 3.60188 3.618 3.66527C3.68424 3.72866 3.78131 3.78108 3.90922 3.82253V2.97773C3.79045 2.98992 3.69566 3.03137 3.62485 3.10207C3.55405 3.17034 3.51864 3.26665 3.51864 3.39099ZM4.09423 5.03305C4.21757 5.01842 4.3135 4.97087 4.38203 4.89042C4.45283 4.80996 4.48823 4.71365 4.48823 4.6015C4.48823 4.48204 4.45397 4.39061 4.38545 4.32722C4.31693 4.26139 4.21986 4.20897 4.09423 4.16996V5.03305Z" fill="#4A5F73"/>
</svg>
