<svg width="57" height="24" viewBox="0 0 57 24" fill="none" xmlns="http://www.w3.org/2000/svg">
<g clip-path="url(#clip0_1758_2570)">
<path d="M36.4853 3.51471C34.2188 1.24823 31.2053 0 28 0C24.7946 0 21.7812 1.24823 19.5147 3.51471C17.2482 5.78119 16 8.79456 16 12C16 15.2053 17.2482 18.2188 19.5147 20.4853C21.7812 22.7518 24.7946 24 28 24C31.2053 24 34.2188 22.7518 36.4853 20.4853C38.7518 18.2188 40 15.2053 40 12C40 8.79456 38.7518 5.78119 36.4853 3.51471ZM22.0159 20.7369C22.5178 17.8471 25.022 15.7156 28 15.7156C30.9782 15.7156 33.4822 17.8471 33.9841 20.7369C32.2803 21.9075 30.2189 22.5938 28 22.5938C25.7811 22.5938 23.7197 21.9075 22.0159 20.7369ZM24.1844 10.4938C24.1844 8.38971 25.8961 6.67822 28 6.67822C30.1039 6.67822 31.8156 8.38989 31.8156 10.4938C31.8156 12.5977 30.1039 14.3093 28 14.3093C25.8961 14.3093 24.1844 12.5977 24.1844 10.4938ZM35.2021 19.7615C34.8236 18.4162 34.072 17.1956 33.0184 16.2422C32.372 15.6572 31.6363 15.1956 30.8453 14.8702C32.275 13.9376 33.222 12.3243 33.222 10.4938C33.222 7.61444 30.8793 5.27197 28 5.27197C25.1207 5.27197 22.7782 7.61444 22.7782 10.4938C22.7782 12.3243 23.7252 13.9376 25.1547 14.8702C24.3639 15.1956 23.628 15.657 22.9816 16.242C21.9282 17.1954 21.1764 18.416 20.7979 19.7613C18.7133 17.8253 17.4062 15.0626 17.4062 12C17.4062 6.15857 22.1586 1.40625 28 1.40625C33.8414 1.40625 38.5938 6.15857 38.5938 12C38.5938 15.0628 37.2867 17.8255 35.2021 19.7615Z" fill="white"/>
</g>
<defs>
<clipPath id="clip0_1758_2570">
<rect width="24" height="24" fill="white" transform="translate(16)"/>
</clipPath>
</defs>
</svg>
