<svg width="57" height="24" viewBox="0 0 57 24" fill="none" xmlns="http://www.w3.org/2000/svg">
<path fill-rule="evenodd" clip-rule="evenodd" d="M27 3.75C22.9959 3.75 19.75 6.99594 19.75 11C19.75 15.0041 22.9959 18.25 27 18.25C31.0041 18.25 34.25 15.0041 34.25 11C34.25 6.99594 31.0041 3.75 27 3.75ZM18.25 11C18.25 6.16751 22.1675 2.25 27 2.25C31.8325 2.25 35.75 6.16751 35.75 11C35.75 15.8325 31.8325 19.75 27 19.75C22.1675 19.75 18.25 15.8325 18.25 11Z" fill="white"/>
<path fill-rule="evenodd" clip-rule="evenodd" d="M31.9429 15.9428C32.3334 15.5523 32.9666 15.5523 33.3571 15.9428L37.7071 20.2928C38.0976 20.6833 38.0976 21.3165 37.7071 21.707C37.3166 22.0975 36.6834 22.0975 36.2929 21.707L31.9429 17.357C31.5524 16.9665 31.5524 16.3333 31.9429 15.9428Z" fill="white"/>
</svg>
